HIERARCHY
ROOT Torso
{
	OFFSET 0.000000 0.000000 0.000000
	CHANNELS 6 Xposition Yposition Zposition Zrotation Yrotation Xrotation
	JOINT TorsoExt
	{
		OFFSET 0.000000 0.000000 0.000000
		CHANNELS 6 Xposition Yposition Zposition Zrotation Yrotation Xrotation
		JOINT LeftHip
		{
			OFFSET 0.000000 0.010000 -0.060000
			CHANNELS 3 Zrotation Yrotation Xrotation
			JOINT LeftThigh
			{
				OFFSET 0.055000 0.000000 -0.055000
				CHANNELS 6 Xposition Yposition Zposition Zrotation Yrotation Xrotation
				JOINT LeftLeg
				{
					OFFSET 0.000000 -0.015000 -0.120000
					CHANNELS 6 Xposition Yposition Zposition Zrotation Yrotation Xrotation
					JOINT LeftFoot
					{
						OFFSET 0.000000 0.010000 -0.100000
						CHANNELS 6 Xposition Yposition Zposition Zrotation Yrotation Xrotation
						End Site
						{
							OFFSET 0.000000 -0.080000 -0.04000
						}
					}
				}
			}
		}
		JOINT RightHip
		{
			OFFSET 0.000000 0.010000 -0.060000
			CHANNELS 3 Zrotation Yrotation Xrotation
			JOINT RightThigh
			{
				OFFSET -0.055000 0.000000 -0.055000
				CHANNELS 6 Xposition Yposition Zposition Zrotation Yrotation Xrotation
				JOINT RightLeg
				{
					OFFSET 0.000000 -0.015000 -0.120000
					CHANNELS 6 Xposition Yposition Zposition Zrotation Yrotation Xrotation
					JOINT RightFoot
					{
						OFFSET 0.000000 0.010000 -0.100000
						CHANNELS 6 Xposition Yposition Zposition Zrotation Yrotation Xrotation
						End Site
						{
							OFFSET 0.000000 -0.080000 -0.04000
						}
					}
				}
			}
		}
	}
	JOINT Neck
	{
		OFFSET 0.000000 -0.000000 0.040000
		CHANNELS 6 Xposition Yposition Zposition Zrotation Yrotation Xrotation
		JOINT Head
		{
			OFFSET 0.000000 -0.000000 0.100000
			CHANNELS 6 Xposition Yposition Zposition Zrotation Yrotation Xrotation
			End Site
			{
				OFFSET 0.000000 -0.000000 0.070000
			}
		}
	}
	JOINT LeftUpperarm
	{
		OFFSET 0.098000 -0.000000 0.075000
		CHANNELS 6 Xposition Yposition Zposition Zrotation Yrotation Xrotation
		JOINT LeftLowerarm
		{
			OFFSET 0.000000 -0.090000 0.009000
			CHANNELS 6 Xposition Yposition Zposition Zrotation Yrotation Xrotation
			End Site
			{
				OFFSET 0.000000 -0.105000 0.000000
			}
		}
	}
	JOINT RightUpperarm
	{
		OFFSET -0.098000 -0.000000 0.075000
		CHANNELS 6 Xposition Yposition Zposition Zrotation Yrotation Xrotation
		JOINT RightLowerarm
		{
			OFFSET 0.000000 -0.090000 0.009000
			CHANNELS 6 Xposition Yposition Zposition Zrotation Yrotation Xrotation
			End Site
			{
				OFFSET 0.000000 -0.105000 0.000000
			}
		}
	}
}
MOTION
Frames: 4
Frame Time: 0.041667
0.000000 0.000000 0.000000 177.890023 -0.000000 -0.000004 0.000000 0.000000 0.000000 0.000000 -0.000000 -0.000001 -44.067773 -16.871095 24.211141 0.055000 -0.000000 -0.055000 0.000000 0.000003 -0.000002 0.000000 -0.015000 -0.120001 -141.548431 -29.378314 1.579124 0.000000 0.010000 -0.100000 179.613580 21.682977 -22.296516 44.054864 16.879486 24.205951 -0.055000 -0.000001 -0.055001 141.276029 27.395295 14.275976 -0.000000 -0.015000 -0.120000 -0.248241 1.984546 -12.840114 -0.000001 0.010000 -0.100000 178.441766 -23.404654 -17.332834 0.000001 0.000000 0.040002 0.135139 -0.513134 -13.508656 -0.000001 0.000000 0.100000 -0.040278 0.473780 24.227668 0.098000 -0.000001 0.075000 -0.000018 97.999998 -84.289466 -0.000000 -0.089999 0.009000 -0.000001 0.000005 -5.710592 -0.098004 -0.000000 0.075001 0.000020 -97.999985 -84.289466 0.000002 -0.090000 0.009000 0.000005 0.000005 -5.710591 
0.000000 0.000000 0.000000 41.998673 4.936318 9.427106 0.000000 0.000000 0.000000 -0.000002 -0.000001 -0.000001 -44.067786 -16.871114 24.211135 0.055000 0.000000 -0.055000 0.000001 0.000001 0.000000 0.000000 -0.015000 -0.120000 -165.284267 -2.097079 16.353124 -0.000000 0.010000 -0.100000 195.003048 20.868921 -55.421668 44.054864 16.879493 24.205953 -0.054999 -0.000001 -0.054999 104.130271 48.100818 6.395667 0.000001 -0.015001 -0.120001 65.413965 25.946856 -14.282175 0.000000 0.009999 -0.100001 167.828813 -13.739917 -86.317656 -0.000000 0.000001 0.040002 2.147366 -5.351796 -31.299226 0.000000 -0.000001 0.100002 -8.425934 8.640870 34.803314 0.098000 0.000000 0.074999 -4.040199 166.422354 -86.809963 0.000000 -0.090002 0.008998 -16.653002 2.645683 23.642693 -0.098000 0.000000 0.075000 40.411299 -170.735782 -94.828174 -0.000000 -0.090000 0.009000 21.531642 -5.264755 32.896882 
0.000000 0.000000 0.000000 41.924446 4.949725 9.452639 0.000000 0.000000 0.000000 0.000000 -0.000000 0.000001 -44.067786 -16.871110 24.211142 0.055000 0.000000 -0.055000 0.000001 -0.000001 0.000002 -0.000000 -0.015001 -0.119999 -164.211804 -2.459917 15.848605 0.000000 0.010001 -0.100000 195.760243 21.279765 -53.334441 44.054864 16.879484 24.205955 -0.054999 0.000001 -0.055002 105.796113 48.319173 8.181365 0.000000 -0.014999 -0.120000 64.127902 26.385856 -14.858366 0.000000 0.010001 -0.100000 167.974924 -13.707969 -86.369887 -0.000000 0.000000 0.040000 2.038901 -5.308347 -31.271359 0.000001 -0.000001 0.100000 -8.340181 8.512299 34.735292 0.098000 -0.000000 0.075000 -4.004878 166.649635 -86.942380 -0.000001 -0.089998 0.008999 -16.706603 2.669096 23.741379 -0.098000 0.000001 0.074999 40.613275 -169.863977 -95.077483 -0.000000 -0.090000 0.009002 22.289506 -5.766740 34.393411 
0.000000 0.000000 0.000000 41.905372 4.920179 9.507222 0.000000 0.000000 0.000000 0.000001 -0.000000 -0.000001 -44.067783 -16.871112 24.211151 0.055000 0.000000 -0.055000 -0.000001 0.000001 -0.000001 -0.000000 -0.015000 -0.120000 -163.158944 -2.832660 15.379901 0.000000 0.010000 -0.100000 195.726379 21.517454 -51.761752 44.054864 16.879476 24.205955 -0.055000 0.000001 -0.055000 107.456163 48.494299 10.146001 0.000000 -0.014999 -0.120000 62.770354 26.939671 -15.577049 -0.000001 0.010001 -0.099999 168.048267 -13.664240 -86.472797 -0.000000 0.000000 0.040002 1.838177 -5.244866 -31.194813 -0.000000 -0.000001 0.100002 -8.277962 8.392941 34.622635 0.098000 -0.000000 0.075000 -4.159093 166.917980 -87.099638 -0.000000 -0.090000 0.009000 -16.783667 2.703155 23.883672 -0.098002 0.000000 0.075001 40.722612 -168.784834 -95.284793 0.000000 -0.090000 0.009000 23.087887 -6.326800 35.992238 
